<svg fill="none" height="48" viewBox="0 0 48 48" width="48" xmlns="http://www.w3.org/2000/svg"><path d="m0 0h48v48h-48z" fill="#fff" fill-opacity=".01"/><g clip-rule="evenodd" fill="#000" fill-rule="evenodd"><path d="m24 4c-11.0457 0-20 8.9543-20 20s8.9543 20 20 20 20-8.9543 20-20-8.9543-20-20-20zm-24 20c0-13.2548 10.7452-24 24-24s24 10.7452 24 24-10.7452 24-24 24-24-10.7452-24-24z"/><path d="m19.183 45.4715c-.1934-.2497-.1934-2.4743 0-6.6735-2.0718.0715-3.3808-.0723-3.927-.4314-.8192-.5387-1.6394-2.2-2.3671-3.3708s-2.3429-1.3559-2.9951-1.6176c-.65222-.2618-.81595-1.3287 1.7972-.5218 2.6132.8069 2.7406 3.0042 3.565 3.518s2.7952.289 3.6886-.1226c.8933-.4116.8276-1.9441.9869-2.5512.2014-.5667-.5085-.6924-.5241-.697-.8721 0-5.4537-.9964-6.7122-5.4331-1.2584-4.4366.3627-7.3365 1.2275-8.5831.5765-.8311.5255-2.6023-.153-5.3138 2.4636-.3148 4.3647.4606 5.7035 2.3264.0013.0107 1.7551-1.0429 4.5268-1.0429 2.7718 0 3.7551.8582 4.514 1.0429.7588.1847 1.3658-3.266 6.0526-2.3264-.9785 1.9232-1.798 4.3264-1.1725 5.3138.6254.9874 3.0801 4.1272 1.5723 8.5831-1.0053 2.9707-2.9813 4.7817-5.9282 5.4331-.338.1078-.5069.2818-.5069.5218 0 .3601.4568.3994 1.115 2.0862.4387 1.1245.4704 4.3363.095 9.6353-.9509.2421-1.6907.4046-2.2194.4877-.9374.1473-1.9552.2299-2.9553.2618-1 .0319-1.3473.0283-2.7298-.1004-.9217-.0858-1.8063-.2273-2.6538-.4245z"/></g></svg>